:version 1.10
:name ASF
:units
  mass 1
  length 1
  angle deg
:documentation
  ASF file generated by Kaydara
:root
  axis xyz
  order  tx ty tz rx ry rz
  position 0 0 0
  orientation 0 0 0
:bonedata
  begin
    id 1
    name RightUpLegDummy
    direction -0.718183 -0.695806 0.00816078
    length 4.904
    axis 0 0 0 xyz
  end
  begin
    id 2
    name RightUpLeg
    direction -0.0736652 -0.994202 0.0783343
    length 17.4976
    axis -2.72909 -3.00389 -4.00133 xyz
    dof rx ry rz
  end
  begin
    id 3
    name RightLeg
    direction -0.0389037 -0.994596 -0.0962598
    length 16.5821
    axis 3.95836 -18.5909 -4.46993 xyz
    dof rx ry rz
  end
  begin
    id 4
    name RightFoot
    direction -0.311643 -0.412678 0.855906
    length 3.77069
    axis -1.99483 -18.8351 -3.27644 xyz
    dof rx ry rz
  end
  begin
    id 5
    name RightToes
    direction -0.317852 0.0389852 0.947339
    length 3.85082
    axis -2.00228 -18.1713 -3.25211 xyz
    dof rx ry rz
  end
  begin
    id 6
    name SpineDummy
    direction 8.3039e-015 1 4.44677e-016
    length 4.6813
    axis 0 0 0 xyz
  end
  begin
    id 7
    name Spine
    direction -0.000262373 0.999988 0.00493267
    length 10.1015
    axis -0.00246081 0.00062579 0.0150362 xyz
    dof rx ry rz
  end
  begin
    id 8
    name Spine1
    direction 0 0 0
    length 0
    axis -0.00349562 0.000650293 0.0196666 xyz
    dof rx ry rz
  end
  begin
    id 9
    name HEadDummy
    direction -0.000343232 0.999999 0.00123745
    length 3.43865
    axis -0.00349562 0.000650293 0.0196666 xyz
  end
  begin
    id 10
    name HEad
    direction -0.0461221 0.980933 0.188796
    length 5.12695
    axis -0.00351404 -7.04812 0.0199272 xyz
    dof rx ry rz
  end
  begin
    id 11
    name LeftShoulder1Dummy
    direction 0.998904 -0.0399089 -0.0244534
    length 3.5433
    axis -0.00349562 0.000650293 0.0196666 xyz
  end
  begin
    id 12
    name LeftShoulder1
    direction 0.99951 1.64443e-005 0.0312999
    length 4.05031
    axis -0.00349562 0.000650293 0.0196666 xyz
    dof rx ry rz
  end
  begin
    id 13
    name LeftArm
    direction 0.984791 0.0515299 0.165927
    length 12.9126
    axis -64.823 -10.7743 5.20463 xyz
    dof rx ry rz
  end
  begin
    id 14
    name LeftForeArm
    direction 0.984968 0.0534808 0.16425
    length 10.8596
    axis -30.0462 -7.70601 1.87451 xyz
    dof rx ry rz
  end
  begin
    id 15
    name LeftHand
    direction 0.975871 0.0289682 0.216418
    length 6.62295
    axis -20.1348 -6.98077 1.86072 xyz
    dof rx ry rz
  end
  begin
    id 16
    name RightShoulderDummy
    direction -0.998877 -0.0405946 -0.0244307
    length 3.5433
    axis -0.00349562 0.000650293 0.0196666 xyz
  end
  begin
    id 17
    name RightShoulder
    direction -0.998933 -0.0249743 -0.0388558
    length 4.05031
    axis -0.0205316 -4.02113 1.41395 xyz
    dof rx ry rz
  end
  begin
    id 18
    name RightArm
    direction -0.997559 0.068664 0.0127103
    length 12.9638
    axis -67.3882 1.84188 -6.15987 xyz
    dof rx ry rz
  end
  begin
    id 19
    name RightForeArm
    direction -0.991508 0.0912848 0.0926241
    length 10.8312
    axis -22.1975 3.41087 -4.28711 xyz
    dof rx ry rz
  end
  begin
    id 20
    name RightHand
    direction -0.989262 0.0600788 0.133232
    length 6.57864
    axis -12.2911 2.17515 -4.39675 xyz
    dof rx ry rz
  end
  begin
    id 21
    name LeftUpLegDummy
    direction 0.718183 -0.695806 0.00816078
    length 4.904
    axis 0 0 0 xyz
  end
  begin
    id 22
    name LeftUpLeg
    direction 0.0831398 -0.99469 0.0606531
    length 17.4976
    axis -1.71016 2.29552 4.63832 xyz
    dof rx ry rz
  end
  begin
    id 23
    name LeftLeg
    direction 0.0498442 -0.991778 -0.117862
    length 16.5821
    axis 5.13757 15.5727 5.13348 xyz
    dof rx ry rz
  end
  begin
    id 24
    name LeftFoot
    direction 0.269026 -0.433896 0.85986
    length 3.77069
    axis -0.576502 15.6961 4.10267 xyz
    dof rx ry rz
  end
  begin
    id 25
    name LeftToes
    direction 0.277311 0.0251143 0.960452
    length 3.85048
    axis -0.576502 15.6961 4.10267 xyz
    dof rx ry rz
  end
:hierarchy
  begin
    root RightUpLegDummy SpineDummy LeftUpLegDummy
    RightUpLegDummy RightUpLeg
    RightUpLeg RightLeg
    RightLeg RightFoot
    RightFoot RightToes
    SpineDummy Spine
    Spine Spine1
    Spine1 HEadDummy LeftShoulder1Dummy RightShoulderDummy
    HEadDummy HEad
    LeftShoulder1Dummy LeftShoulder1
    LeftShoulder1 LeftArm
    LeftArm LeftForeArm
    LeftForeArm LeftHand
    RightShoulderDummy RightShoulder
    RightShoulder RightArm
    RightArm RightForeArm
    RightForeArm RightHand
    LeftUpLegDummy LeftUpLeg
    LeftUpLeg LeftLeg
    LeftLeg LeftFoot
    LeftFoot LeftToes
  end

:SAMPLES-PER-SECOND 30
:FULLY-SPECIFIED
:DEGREES
1
root  6.43478 40.0531 -85.459 -1.41182 -9.4863 0.613073
RightUpLeg  -0.732547 -0.113839 2.02799
RightLeg  2.66466 -4.1924 0.38342
RightFoot  -1.58567 0.195467 -2.01265
RightToes  5.82077e-011 -3.18055e-015 -2.98177e-016
Spine  -4.10838 1.46711 -0.214882
Spine1  13.3269 0.829874 2.87772
HEad  -14.3896 4.09972 -1.19188
LeftShoulder1  -3.88251e-019 9.70628e-020 -3.87848e-018
LeftArm  -24.6538 51.8587 -74.0629
LeftForeArm  2.98082 -12.084 -4.78446
LeftHand  -0.436905 0.907316 12.4639
RightShoulder  8.11739 10.8729 37.713
RightArm  10.0676 -39.3375 19.6537
RightForeArm  14.2335 15.5663 -4.65071
RightHand  -0.782944 1.0363 -13.8896
LeftUpLeg  -0.715102 -3.21992 -3.97005
LeftLeg  3.36925 15.9379 3.03438
LeftFoot  -1.22414 -0.013996 0.0679465
LeftToes  1.39127e-010 -3.60802e-011 -7.31315e-011
2
root  6.4341 40.0531 -85.4665 -1.47217 -9.39627 0.639538
RightUpLeg  -0.699183 -0.171579 1.98245
RightLeg  2.72426 -4.21281 0.382018
RightFoot  -1.59985 0.193821 -1.99575
RightToes  5.82077e-011 -3.18055e-015 -2.98177e-016
Spine  -3.95402 1.40974 -0.278455
Spine1  13.2318 0.757916 2.94877
HEad  -14.4417 4.1313 -1.15653
LeftShoulder1  -3.88251e-019 9.70628e-020 -3.87848e-018
LeftArm  -24.7761 51.7984 -74.1064
LeftForeArm  2.96021 -11.9844 -4.7546
LeftHand  -0.417149 1.06839 12.379
RightShoulder  8.11637 10.8737 37.6947
RightArm  10.0678 -39.3407 19.7033
RightForeArm  13.776 15.5634 -4.61843
RightHand  -0.774942 0.548919 -14.8227
LeftUpLeg  -0.669404 -3.31458 -4.03839
LeftLeg  3.34279 15.9435 3.09386
LeftFoot  -1.17936 -0.0130663 0.0581778
LeftToes  1.39127e-010 -3.60802e-011 -7.31315e-011
3
root  6.42848 40.0531 -85.4752 -1.53573 -9.28363 0.683196
RightUpLeg  -0.673611 -0.245938 1.92377
RightLeg  2.80856 -4.2385 0.377013
RightFoot  -1.63301 0.193044 -1.98777
RightToes  5.82077e-011 -3.18055e-015 -2.98177e-016
Spine  -3.80057 1.33282 -0.415186
Spine1  13.1358 0.649013 3.0975
HEad  -14.4979 4.22035 -1.12816
LeftShoulder1  -3.88251e-019 9.70628e-020 -3.87848e-018
LeftArm  -24.9638 51.6745 -74.1511
LeftForeArm  3.25382 -11.7374 -4.68966
LeftHand  -0.417814 1.05143 12.3462
RightShoulder  8.11554 10.8743 37.6799
RightArm  10.2065 -39.3451 19.7203
RightForeArm  13.5023 15.6152 -4.61802
RightHand  -0.802225 0.47383 -15.5326
LeftUpLeg  -0.621052 -3.41393 -4.11309
LeftLeg  3.30815 15.933 3.14087
LeftFoot  -1.13207 -0.0127459 0.0548114
LeftToes  1.39127e-010 -3.60802e-011 -7.31315e-011
4
root  6.41294 40.0531 -85.4747 -1.52983 -9.27636 0.709073
RightUpLeg  -0.694276 -0.255874 1.91797
RightLeg  2.84535 -4.2353 0.36788
RightFoot  -1.66489 0.193561 -1.99308
RightToes  5.82077e-011 -3.18055e-015 -2.98177e-016
Spine  -3.84632 1.30073 -0.521775
Spine1  13.1631 0.59293 3.20213
HEad  -14.4842 4.25138 -1.16005
LeftShoulder1  -3.88251e-019 9.70628e-020 -3.87848e-018
LeftArm  -25.1205 51.5892 -74.1375
LeftForeArm  3.80196 -11.5017 -4.58622
LeftHand  -0.456241 0.672531 12.3241
RightShoulder  8.11771 10.8761 37.683
RightArm  10.4721 -39.356 19.672
RightForeArm  13.6918 15.7203 -4.67265
RightHand  -0.871478 1.09646 -15.3047
LeftUpLeg  -0.610232 -3.41092 -4.11003
LeftLeg  3.27538 15.9231 3.1101
LeftFoot  -1.11535 -0.0129947 0.057425
LeftToes  1.39127e-010 -3.60802e-011 -7.31315e-011
5
root  6.39536 40.053 -85.467 -1.48013 -9.32052 0.722908
RightUpLeg  -0.746055 -0.242203 1.93342
RightLeg  2.86244 -4.21059 0.36393
RightFoot  -1.69722 0.194221 -1.99985
RightToes  5.82077e-011 -3.18055e-015 -2.98177e-016
Spine  -3.99615 1.28379 -0.521276
Spine1  13.2403 0.587705 3.15809
HEad  -14.4202 4.17877 -1.20822
LeftShoulder1  -3.88251e-019 9.70628e-020 -3.87848e-018
LeftArm  -25.221 51.6109 -74.0624
LeftForeArm  4.18197 -11.4303 -4.46873
LeftHand  -0.482292 0.344049 12.1212
RightShoulder  8.13446 10.8854 37.746
RightArm  10.7282 -39.3372 19.5945
RightForeArm  13.7684 15.8059 -4.69443
RightHand  -0.921189 1.65732 -14.9159
LeftUpLeg  -0.62878 -3.36592 -4.07325
LeftLeg  3.25045 15.9178 3.05342
LeftFoot  -1.11404 -0.013062 0.058132
LeftToes  1.39127e-010 -3.60802e-011 -7.31315e-011
